<?xml version="1.0" encoding="UTF-8"?>
<svg id="Layer_1" xmlns="http://www.w3.org/2000/svg" version="1.1" xmlns:xlink="http://www.w3.org/1999/xlink" viewBox="0 0 512 395.16">
  <!-- Generator: Adobe Illustrator 29.4.0, SVG Export Plug-In . SVG Version: 2.1.0 Build 152)  -->
  <defs>
    <style>
      .st0 {
        fill: #fff;
        filter: url(#drop-shadow-1);
      }

      .st1 {
        fill: #0e68c1;
      }
    </style>
    <filter id="drop-shadow-1" x="71" y="22.58" width="369" height="350" filterUnits="userSpaceOnUse">
      <feOffset dx="0" dy="0"/>
      <feGaussianBlur result="blur" stdDeviation="5"/>
      <feFlood flood-color="#000" flood-opacity=".2"/>
      <feComposite in2="blur" operator="in"/>
      <feComposite in="SourceGraphic"/>
    </filter>
  </defs>
  <polygon class="st1" points="55.47 70.6 133.65 0 512 0 467.64 323.63 391.04 395.16 0 395.16 55.47 70.6"/>
  <path class="st0" d="M86.28,348.85l142.27-193.17-42.34-34.61,50.47-.36,21.22-47.76,16.71,48.89,49.97,1.89-39.76,29.61,16.76,46.66-41.41-20.93s-40.25,16.19-26.15,47.47l56.29,105.92c.94,1.72,1.82,3.47,2.71,5.22,2.63,5.19,12.29,20.76,32.89,19.3,3.76-.27,7.51-.53,11.28-.47l63.06.96-76.81-119.94s38.38,7.18,75.27-31.85c0,0,44.07-41.67,16.51-109.73,0,0-15.72-39.96-64.39-52.53-8.47-2.19-17.2-3.15-25.95-3.28l-143.75-2.19c-18.86-.29-35.75,12.59-39.51,31.07-3.47,17.05-6.05,34.29-9.47,51.36-2.58,12.84-5.16,25.68-7.73,38.51-3.2,15.95-6.41,31.9-9.61,47.85-3.35,16.68-6.7,33.36-10.05,50.05-3.02,15.04-6.04,30.07-9.06,45.11-2.21,11.01-4.42,22.03-6.64,33.04-.93,4.61-1.85,9.23-2.79,13.91Z"/>
</svg>