<svg width="90" height="30" viewBox="0 0 90 30" fill="none" xmlns="http://www.w3.org/2000/svg">
<path d="M38.5152 15.5907C38.5152 19.853 35.1808 22.9938 31.0887 22.9938C26.9965 22.9938 23.6621 19.853 23.6621 15.5907C23.6621 11.2983 26.9965 8.1875 31.0887 8.1875C35.1808 8.1875 38.5152 11.2983 38.5152 15.5907ZM35.2641 15.5907C35.2641 12.9271 33.3316 11.1048 31.0887 11.1048C28.8457 11.1048 26.9132 12.9272 26.9132 15.5907C26.9132 18.2275 28.8457 20.0766 31.0887 20.0766C33.3316 20.0768 35.2641 18.2242 35.2641 15.5907Z" fill="#FF4131"/>
<path d="M54.5367 15.5907C54.5367 19.853 51.2023 22.9938 47.1101 22.9938C43.018 22.9938 39.6836 19.853 39.6836 15.5907C39.6836 11.3016 43.018 8.1875 47.1101 8.1875C51.2021 8.1875 54.5367 11.2983 54.5367 15.5907ZM51.2856 15.5907C51.2856 12.9271 49.3531 11.1048 47.1101 11.1048C44.8672 11.1048 42.9347 12.9272 42.9347 15.5907C42.9347 18.2275 44.8672 20.0766 47.1101 20.0766C49.3531 20.0768 51.2856 18.2242 51.2856 15.5907Z" fill="#FFBC00"/>
<path d="M69.8894 8.63486V21.9258C69.8894 27.3931 66.6651 29.626 62.8535 29.626C59.2654 29.626 57.1058 27.2261 56.2914 25.2635L59.1218 24.0852C59.6258 25.2902 60.8608 26.7121 62.8501 26.7121C65.2899 26.7121 66.802 25.2067 66.802 22.373V21.3083H66.6885C65.9609 22.2062 64.5589 22.9905 62.79 22.9905C59.0884 22.9905 55.6973 19.7662 55.6973 15.6174C55.6973 11.4386 59.0884 8.1875 62.79 8.1875C64.5557 8.1875 65.9576 8.97183 66.6885 9.843H66.802V8.63803H69.8894V8.63486ZM67.0323 15.6174C67.0323 13.0106 65.2933 11.1048 63.0804 11.1048C60.8374 11.1048 58.9582 13.0106 58.9582 15.6174C58.9582 18.1975 60.8373 20.0766 63.0804 20.0766C65.2933 20.0768 67.0323 18.1975 67.0323 15.6174Z" fill="#0085F7"/>
<path d="M74.9795 0.844238V22.5398H71.8086V0.844238H74.9795Z" fill="#00A94B"/>
<path d="M87.3369 18.0275L89.8602 19.7097C89.0458 20.9147 87.0832 22.9907 83.6921 22.9907C79.4865 22.9907 76.3457 19.7396 76.3457 15.5875C76.3457 11.1849 79.5133 8.18433 83.3282 8.18433C87.1699 8.18433 89.0492 11.2417 89.6634 12.8938L90.0005 13.7349L80.1041 17.8338C80.8617 19.3191 82.0399 20.0767 83.6921 20.0767C85.3476 20.0769 86.4958 19.2624 87.3369 18.0275ZM79.57 15.3639L86.1855 12.617C85.8217 11.6924 84.7269 11.0483 83.4386 11.0483C81.7863 11.0481 79.4865 12.5068 79.57 15.3639Z" fill="#FF4131"/>
<path d="M11.6588 13.6648V10.524H22.2429C22.3464 11.0714 22.3997 11.7189 22.3997 12.4198C22.3997 14.7763 21.7555 17.69 19.6795 19.7662C17.6601 21.869 15.08 22.9905 11.6621 22.9905C5.32702 22.9905 0 17.8303 0 11.4953C0 5.16039 5.32702 0 11.6621 0C15.1669 0 17.6635 1.37513 19.5392 3.16756L17.323 5.3838C15.9779 4.12205 14.1554 3.14085 11.6588 3.14085C7.03262 3.14085 3.41453 6.86915 3.41453 11.4953C3.41453 16.1215 7.03262 19.8498 11.6588 19.8498C14.6594 19.8498 16.3683 18.6448 17.4633 17.5501C18.3511 16.6622 18.9352 15.394 19.1655 13.6616L11.6588 13.6648Z" fill="#0085F7"/>
</svg>
